<svg xmlns="http://www.w3.org/2000/svg" xmlns:xlink="http://www.w3.org/1999/xlink" viewBox="0 0 100 125" version="1.1" x="0px" y="0px"><title>4.4</title><desc>Created with Sketch.</desc><g stroke="none" stroke-width="1" fill="none" fill-rule="evenodd"><g><circle fill="#000000" cx="50" cy="50" r="16"/><path d="M55,23 L45,23" stroke="#000000" stroke-width="4" stroke-linecap="round" stroke-linejoin="round" transform="translate(50.000000, 23.000000) rotate(90.000000) translate(-50.000000, -23.000000) "/><path d="M55,77 L45,77" stroke="#000000" stroke-width="4" stroke-linecap="round" stroke-linejoin="round" transform="translate(50.000000, 77.000000) rotate(90.000000) translate(-50.000000, -77.000000) "/><path d="M82,50 L72,50" stroke="#000000" stroke-width="4" stroke-linecap="round" stroke-linejoin="round" transform="translate(77.000000, 50.000000) rotate(180.000000) translate(-77.000000, -50.000000) "/><path d="M28,50 L18,50" stroke="#000000" stroke-width="4" stroke-linecap="round" stroke-linejoin="round" transform="translate(23.000000, 50.000000) rotate(180.000000) translate(-23.000000, -50.000000) "/><path d="M74.0918831,30.9081169 L64.0918831,30.9081169" stroke="#000000" stroke-width="4" stroke-linecap="round" stroke-linejoin="round" transform="translate(69.091883, 30.908117) rotate(135.000000) translate(-69.091883, -30.908117) "/><path d="M35.9081169,69.0918831 L25.9081169,69.0918831" stroke="#000000" stroke-width="4" stroke-linecap="round" stroke-linejoin="round" transform="translate(30.908117, 69.091883) rotate(135.000000) translate(-30.908117, -69.091883) "/><path d="M74.0918831,69.0918831 L64.0918831,69.0918831" stroke="#000000" stroke-width="4" stroke-linecap="round" stroke-linejoin="round" transform="translate(69.091883, 69.091883) rotate(225.000000) translate(-69.091883, -69.091883) "/><path d="M35.9081169,30.9081169 L25.9081169,30.9081169" stroke="#000000" stroke-width="4" stroke-linecap="round" stroke-linejoin="round" transform="translate(30.908117, 30.908117) rotate(225.000000) translate(-30.908117, -30.908117) "/></g></g><text x="0" y="115" fill="#000000" font-size="5px" font-weight="bold" font-family="'Helvetica Neue', Helvetica, Arial-Unicode, Arial, Sans-serif">Created by Landan Lloyd</text><text x="0" y="120" fill="#000000" font-size="5px" font-weight="bold" font-family="'Helvetica Neue', Helvetica, Arial-Unicode, Arial, Sans-serif">from the Noun Project</text></svg>